<svg width="40" height="40" viewBox="0 0 40 40" fill="none" xmlns="http://www.w3.org/2000/svg">
<path d="M20.0009 2.49895C10.3392 2.49895 2.50089 10.3372 2.50089 19.9989C2.50089 29.6607 10.3392 37.4989 20.0009 37.4989C29.6626 37.4989 37.5009 29.6693 37.5009 19.9989C37.5009 10.3286 29.6626 2.49895 20.0009 2.49895ZM31.1118 10.5654C33.1367 12.9457 34.3419 15.9144 34.5493 19.0325C31.3954 18.8685 27.622 18.8685 24.5962 19.1513C24.2134 18.1849 23.8212 17.2372 23.3931 16.3255C26.8821 14.813 29.5712 12.8255 31.1118 10.5654ZM20.0009 5.41535C23.4001 5.40951 26.6935 6.59672 29.3071 8.77004C27.7212 10.7747 25.2329 12.52 22.1337 13.8372C20.4384 10.7021 18.4876 8.00441 16.4071 5.8802C17.5812 5.57711 18.7883 5.42097 20.0009 5.41535ZM13.4017 7.01066C15.5071 9.10676 17.4853 11.7763 19.2173 14.9013C15.9267 15.9068 12.1532 16.4833 8.12588 16.4833C7.36026 16.4833 6.61338 16.456 5.8751 16.4099C6.38865 14.3979 7.32571 12.5186 8.62366 10.8977C9.92162 9.27683 11.5506 7.95163 13.4017 7.01066ZM5.44463 19.306C6.27432 19.3427 7.1126 19.3607 7.96026 19.3521C12.554 19.2974 16.829 18.5771 20.5024 17.3989C20.8488 18.1193 21.1769 18.8575 21.4868 19.6138C21.043 19.711 20.6071 19.8415 20.1829 20.0044C15.161 22.1138 11.2056 25.513 9.06338 29.6239C6.71444 26.9679 5.41767 23.5447 5.41729 19.9989C5.41729 19.7646 5.42667 19.5341 5.44463 19.306ZM20.0009 34.5825C16.7609 34.5865 13.613 33.505 11.0595 31.5107C13.0009 27.6646 16.4642 24.4794 20.8306 22.5052C21.2407 22.3138 21.7876 22.1591 22.4165 22.0224C22.9373 23.462 23.4022 24.9568 23.811 26.5068C24.4217 28.8462 24.8714 31.2246 25.1571 33.6255C23.5111 34.2562 21.7636 34.5805 20.0009 34.5825ZM27.8853 32.2583C27.6001 29.8325 27.1461 27.4296 26.5267 25.0669C26.2142 23.8818 25.8618 22.7333 25.479 21.6122C28.3407 21.3778 31.7681 21.4114 34.4931 21.6122C34.2529 23.7665 33.5351 25.8401 32.392 27.6819C31.2489 29.5236 29.7092 31.0871 27.8853 32.2583Z" fill="white"/>
</svg>
