<svg width="40" height="40" viewBox="0 0 40 40" fill="none" xmlns="http://www.w3.org/2000/svg">
<path d="M20 2.49977C10.3359 2.49977 2.5 10.5388 2.5 20.4451C2.5 28.3748 7.51562 35.0935 14.4687 37.4685C14.5663 37.4897 14.6658 37.5002 14.7656 37.4998C15.4141 37.4998 15.6641 37.0232 15.6641 36.6091C15.6641 36.1794 15.6484 35.0544 15.6406 33.5544C15.0617 33.6902 14.4695 33.7609 13.875 33.7654C10.5078 33.7654 9.74219 31.1482 9.74219 31.1482C8.94531 29.0779 7.79687 28.5232 7.79687 28.5232C6.27344 27.4529 7.78906 27.4216 7.90625 27.4216H7.91406C9.67187 27.5779 10.5937 29.281 10.5937 29.281C11.4687 30.8123 12.6406 31.2419 13.6875 31.2419C14.3797 31.2281 15.0612 31.0684 15.6875 30.7732C15.8437 29.6169 16.2969 28.8279 16.7969 28.3748C12.9141 27.9216 8.82812 26.3826 8.82812 19.5076C8.82812 17.5466 9.50781 15.9451 10.625 14.6951C10.4453 14.242 9.84375 12.4138 10.7969 9.94508C10.9247 9.91449 11.0561 9.90135 11.1875 9.90602C11.8203 9.90602 13.25 10.1482 15.6094 11.7888C18.4762 10.9867 21.5082 10.9867 24.375 11.7888C26.7344 10.1482 28.1641 9.90602 28.7969 9.90602C28.9282 9.90135 29.0596 9.91449 29.1875 9.94508C30.1406 12.4138 29.5391 14.242 29.3594 14.6951C30.4766 15.9529 31.1562 17.5545 31.1562 19.5076C31.1562 26.3982 27.0625 27.9138 23.1641 28.3591C23.7891 28.9138 24.3516 30.0076 24.3516 31.6794C24.3516 34.0779 24.3281 36.0154 24.3281 36.6013C24.3281 37.0232 24.5703 37.4998 25.2187 37.4998C25.3237 37.5002 25.4284 37.4897 25.5312 37.4685C32.4922 35.0935 37.5 28.3669 37.5 20.4451C37.5 10.5388 29.6641 2.49977 20 2.49977Z" fill="white"/>
</svg>
