<svg width="40" height="40" viewBox="0 0 40 40" fill="none" xmlns="http://www.w3.org/2000/svg">
<path d="M34.7008 2.5011H5.49062C3.89453 2.5011 2.5 3.64954 2.5 5.22688V34.5019C2.5 36.0878 3.89453 37.5011 5.49062 37.5011H34.6922C36.2969 37.5011 37.5 36.0784 37.5 34.5019V5.22688C37.5094 3.64954 36.2969 2.5011 34.7008 2.5011ZM13.3492 31.6753H8.33515V16.0855H13.3492V31.6753ZM11.0156 13.7152H10.9797C9.375 13.7152 8.33594 12.5206 8.33594 11.0253C8.33594 9.50266 9.40234 8.33625 11.043 8.33625C12.6836 8.33625 13.6875 9.49407 13.7234 11.0253C13.7227 12.5206 12.6836 13.7152 11.0156 13.7152ZM31.6742 31.6753H26.6601V23.1511C26.6601 21.1089 25.9305 19.7136 24.1164 19.7136C22.7305 19.7136 21.9101 20.6511 21.5453 21.5644C21.4086 21.8925 21.3719 22.3394 21.3719 22.7956V31.6753H16.3578V16.0855H21.3719V18.255C22.1016 17.2159 23.2414 15.7206 25.8937 15.7206C29.1851 15.7206 31.675 17.8902 31.675 22.5675L31.6742 31.6753Z" fill="white"/>
</svg>
