<svg width="50" height="50" viewBox="0 0 50 50" fill="none" xmlns="http://www.w3.org/2000/svg">
<circle cx="25" cy="25" r="25" fill="white"/>
<path d="M17.8751 16.9991H32.1251C32.8207 17.0011 33.4872 17.2783 33.9791 17.7701C34.4709 18.262 34.7481 18.9285 34.7501 19.6241V28.6241C34.7481 29.3197 34.4709 29.9862 33.9791 30.4781C33.4872 30.9699 32.8207 31.2471 32.1251 31.2491H30.2501V34.9991L25.857 31.3363C25.7895 31.2799 25.7044 31.2491 25.6165 31.2491H17.8751C17.1795 31.2471 16.513 30.9699 16.0212 30.4781C15.5293 29.9862 15.2521 29.3197 15.2501 28.6241V19.6241C15.2521 18.9285 15.5293 18.262 16.0212 17.7701C16.513 17.2783 17.1795 17.0011 17.8751 16.9991V16.9991Z" stroke="black" stroke-width="1.5" stroke-linejoin="round"/>
</svg>
